<svg width="151" height="100" viewBox="0 0 151 100" fill="none" xmlns="http://www.w3.org/2000/svg"><path fill-rule="evenodd" clip-rule="evenodd" d="M150.228 0h-21.739v21.7391h21.739V0zM89.4473 68.7478c11.1057 0 17.6567-7.0636 18.7797-15.1005H96.9657c-.7119 3.0728-3.425 5.4293-7.5184 5.4293-5.3234 0-8.7522-3.9945-8.7522-9.2141 0-4.863 2.9674-9.2152 8.6511-9.2152 4.45 0 7.0109 2.6652 7.6195 6.0456h11.1613c-.922-8.6032-7.628-15.7146-18.7808-15.7146-12.4875 0-19.5527 8.9549-19.5527 18.8837 0 9.9782 7.2195 18.8847 19.6538 18.8847v.0011zM44.4212 41.069v17.8098h4.0195c5.3712 0 8.5924-4.2962 8.5924-8.9033 0-4.6038-3.2212-8.9065-8.5924-8.9065h-4.0195zm4.7858-9.0038c11.8696 0 18.7283 8.5951 18.7283 17.9103v-.001c0 9.3125-6.7554 17.9076-18.7283 17.9076H33.7777V32.0652H49.207zm87.16 22.8658h-5.935v-7.0104h19.773v7.0109h-3.038c-1.278 8.2424-7.73 13.8185-17.859 13.8185-12.537 0-19.297-8.6005-19.297-18.6821 0-10.2342 7.014-19.0896 19.193-19.0896 10.029 0 16.99 6.0434 17.657 13.4114h-11.772c-.357-2.0419-2.349-4.2962-6.04-4.2962-5.473 0-8.188 4.8521-8.188 10.0761 0 5.3255 2.869 9.8288 8.703 9.8288 4.143 0 6.291-2.2979 6.803-5.0674zM22.5109 32.0652H.771729v21.7391H22.5109V32.0652zm55.4347 46.1957h21.7392V100H77.9456V78.2609z" fill="currentColor"/></svg>
