<svg width="144" height="100" viewBox="0 0 144 100" fill="none" xmlns="http://www.w3.org/2000/svg"><path d="M26.191 32.5259V25.019h1.6943c2.264 0 3.6217 1.8136 3.6217 3.7541 0 1.9419-1.3577 3.7528-3.6217 3.7528H26.191zm9.9113-3.7528c0-3.9264-2.8909-7.5492-7.894-7.5492h-6.5035v15.0969h6.5035c5.0466 0 7.894-3.6229 7.894-7.5481v.0004zm1.9124-7.549h4.5311V36.321h-4.5311V21.2241zm14.5799 15.5077c4.2714 0 6.9873-2.3504 7.5275-5.8232h1.2792v-2.9565h-8.3325v2.9563h2.5024c-.2158 1.1646-1.1218 2.1339-2.8703 2.1339-2.4576 0-3.6662-1.8961-3.6662-4.1413 0-2.2001 1.1431-4.249 3.4518-4.249 1.5531 0 2.3945.95 2.545 1.8109h4.9612c-.2802-3.1047-3.2135-5.6514-7.441-5.6514-5.1343 0-8.0892 3.7352-8.0892 8.0476 0 4.248 2.8468 7.8725 8.1323 7.8725l-.0002.0002zm10.3807-15.5077h4.53V36.321h-4.53V21.2241zm10.0989 15.0972h4.4876V25.0628h3.4128v-3.8387H69.6627v3.8387h3.4115v11.2585zm15.394-10.5683l1.5953 5.5652h-3.1919l1.5966-5.565v-.0002zm-3.0618 10.5683l.5163-1.7465h5.0704l.5164 1.7465h5.0044l-5.6953-15.0972h-4.7023l-5.565 15.0972h4.8551zm12.7672-15.0972v15.0972h8.4344v-3.8394h-3.946V21.2241h-4.4884zM29.1347 57.96c4.681 0 7.4423-2.9773 7.9155-6.3649h-4.7465c-.3 1.2952-1.4436 2.2885-3.169 2.2885-2.2438 0-3.6891-1.6838-3.6891-3.8838 0-2.0498 1.2508-3.8843 3.6465-3.8843 1.8757 0 2.9551 1.1234 3.2116 2.5483h4.7044c-.3883-3.6263-3.2151-6.6238-7.916-6.6238-5.2636 0-8.2416 3.7745-8.2416 7.9595 0 4.2059 3.0431 7.9601 8.2842 7.9601v.0004zm16.1821 0c3.9236 0 6.2973-2.3732 6.2973-5.6518v-9.8595h-4.4853v9.8148c0 1.0361-.756 1.9-1.812 1.9-1.0584 0-1.8349-.8636-1.8349-1.8998v-9.8146h-4.4877v9.8595c0 3.2786 2.3962 5.6514 6.3226 5.6514zm15.2864-7.7447h-1.8567v-4.2714h1.8777c1.2077 0 1.985.9713 1.985 2.1373 0 1.1633-.7986 2.1341-2.0058 2.1341h-.0002zm6.5786-2.1345c0-3.0433-2.2213-5.6317-5.6742-5.6317H54.26v15.1018h4.4863v-3.8623h.8425l2.5657 3.8623H67.44l-3.0211-4.5965c1.7284-.9694 2.7627-2.8245 2.7627-4.8736h.0002zm6.619-2.1369h1.8771c1.2077 0 1.9838.9713 1.9838 2.1369 0 1.1637-.7972 2.1345-2.0049 2.1345h-1.856v-4.2714zm0 7.7452h.8412l2.5666 3.8618h5.2857l-3.0201-4.5965c1.7249-.969 2.7613-2.8241 2.7613-4.8736 0-3.0433-2.2239-5.6317-5.6743-5.6317h-7.2467v15.1018h4.4863v-3.8623.0005zm20.2936-7.8741v-3.3661h-9.7257v15.102h9.7259v-3.367h-5.2392v-2.5226h5.2397v-3.2135h-5.2397V45.815h5.239zm12.0626 5.5865l-4.918-8.9524h-4.5727v15.1018h4.4867v-8.6523l4.939 8.6523h4.573v-15.102h-4.508v8.9526zm14.704 2.4823c-2.243 0-3.689-1.6837-3.689-3.8838 0-2.0498 1.251-3.8843 3.646-3.8843 1.876 0 2.954 1.1234 3.212 2.5483h4.702c-.387-3.6263-3.212-6.6238-7.914-6.6238-5.264 0-8.242 3.7745-8.242 7.9596 0 4.2054 3.042 7.96 8.285 7.96 4.68 0 7.439-2.9773 7.914-6.365h-4.745c-.301 1.2953-1.445 2.2885-3.169 2.2885v.0005zm17.635-11.4349l-2.287 5.3719-2.437-5.3719h-5.263l5.067 9.7725-2.608 5.3295h5.046l7.486-15.102h-5.004zM29.4577 73.3614h2.5015c-.2158 1.1674-1.1213 2.1359-2.8674 2.1359-2.4589 0-3.6682-1.8981-3.6682-4.1429 0-2.2019 1.144-4.2471 3.4513-4.2471 1.5554 0 2.3952.9503 2.5458 1.8109h4.9618c-.2811-3.1056-3.2154-5.653-7.4423-5.653-5.1337 0-8.0901 3.7326-8.0901 8.0464 0 4.2494 2.8492 7.8746 8.1338 7.8746 4.2696 0 6.9888-2.3504 7.5276-5.8246h1.2805v-2.9551h-8.3343v2.9551-.0002zm16.2519-1.9192h-1.8573v-4.2705H45.73c1.2073 0 1.9834.9704 1.9834 2.1343 0 1.166-.7972 2.1362-2.0038 2.1362zm6.578-2.1362c0-3.0392-2.2232-5.6296-5.6738-5.6296h-7.248v15.1009h4.4862v-3.863h.8421l2.5673 3.8627h5.2835l-3.02-4.5953c1.7264-.9694 2.7627-2.8273 2.7627-4.8757zm9.5517 5.7806c-2.2862 0-3.6451-1.8539-3.6451-3.8623 0-2.0044 1.3584-3.8576 3.6451-3.8576 2.3084 0 3.6469 1.8532 3.6469 3.8576 0 2.0084-1.3385 3.8623-3.6469 3.8623zm0-11.8214c-5.1763 0-8.1747 3.7972-8.1747 7.9596 0 4.1637 2.9986 7.9611 8.1749 7.9611 5.1996 0 8.1973-3.7974 8.1973-7.9613 0-4.1624-2.9977-7.9598-8.1973-7.9598l-.0002.0004zm22.8629 10.2694v-9.8582h-4.4854v9.8151c0 1.0373-.7564 1.8968-1.812 1.8968-1.056 0-1.8349-.8595-1.8349-1.8968v-9.8151h-4.4853v9.8582c0 3.2781 2.3938 5.6513 6.3193 5.6513 3.925 0 6.2985-2.3732 6.2985-5.6513h-.0002zm8.989-2.0924h-1.8567v-4.2705h1.8778c1.2072 0 1.985.9704 1.985 2.1343 0 1.166-.8002 2.1362-2.0058 2.1362h-.0003zm.9053-7.7658h-7.2491v15.1009h4.4869v-3.8627h2.7622c3.45 0 5.6725-2.5863 5.6725-5.6083 0-3.0392-2.2225-5.6296-5.6725-5.6296v-.0003zM.481567 21.2241H15.5801V36.321H.481567V21.2241zM76.7371 84.9024h15.0958V100H76.7371V84.9024zM87.5627 0h15.0993v15.0976H87.5627V0z" fill="currentColor"/></svg>
