<svg width="100" height="106" viewBox="0 0 100 106" fill="none" xmlns="http://www.w3.org/2000/svg"><g clip-path="url(#clip0_48_438)" fill="currentColor"><path d="M31.1096 67.0796c2.8391-2.7898 9.3092 2.4157 9.9322 3.2683-.6771 2.2857-4.3449 5.998-6.8683 6.7876-.1566.0505-6.5192-6.6608-3.0639-10.0559M68.8936 67.0796c-2.8405-2.7898-9.3139 2.4157-9.9351 3.2683.6783 2.2857 4.3464 5.998 6.8694 6.7876.1552.0505 6.5179-6.6608 3.0657-10.0559"/><path d="M49.4726 22.1479c0 .5707-.2615.8134-1.0268.2206-2.0923-1.6137-3.3954-2.9327-5.0092-5.5242-.4182-.6765-1.3455-2.0938-1.3455-2.0938-.0048.0078.3581 1.5787 1.0792 2.7485 1.953 3.1891 3.9153 4.9801 5.242 6.0231.2361.1887.9745.5516.994 1.295.0281.9399 0 5.9359-.032 7.9523-.0251 1.9527-.0822 2.7359-.0697 4.0943.0174.7749-.463.8541-.9479.5405-.9465-.617-1.5949-.9494-2.5234-1.5724-2.7201-1.8385-4.7996-3.6331-7.7651-5.7284.4024.8765 2.7581 2.9703 3.2968 3.422 1.7482 1.4756 3.5984 2.8738 5.4605 4.1987.1934.1363 1.0224.7641 1.7088 1.1668.6576.3835.7814.8463.7638 1.3981.0511.9573-.0126 3.3778.0239 5.2112 0 1.9243.0394 5.9188.0475 8.8593.0224.5022-.3474.7686-.9826.3503-1.9781-1.2953-3.2636-2.0274-5.1658-3.4366-2.7437-2.0194-5.1544-3.9877-5.1529-4.0101 0-.0125.6672 1.4314 2.4394 2.872 1.8418 1.5025 3.712 2.9945 5.6823 4.3939.8529.6053 1.7913 1.2014 2.7168 1.75.3758.2565.5133.6989.5133.9067.0162 4.0749.1824 9.5196.5788 12.2585.3994-2.7389.5608-8.1836.5802-12.2585 0-.2078.1423-.6502.5133-.9067.9268-.5486 1.8648-1.1447 2.721-1.75 1.9653-1.3994 3.8358-2.8914 5.6806-4.3939 1.7691-1.4406 2.4379-2.8845 2.4411-2.872 0 .0224-2.4124 1.9907-5.1517 4.0101-1.9081 1.4092-3.1891 2.1413-5.1702 3.4366-.6347.4183-1.0057.1519-.982-.3503.0095-2.9405.0511-6.935.0511-8.8593.0266-1.8334-.0305-4.2539.0221-5.2112-.0206-.5518.1031-1.0146.7605-1.3981.6906-.4027 1.5148-1.0305 1.7115-1.1668 1.8573-1.3249 3.712-2.7231 5.4617-4.1987.5393-.4517 2.8911-2.5455 3.297-3.422-2.9673 2.0953-5.05 3.8899-7.7731 5.7284-.9255.623-1.5725.9554-2.5201 1.5724-.4813.3136-.9596.2344-.9441-.5405.0096-1.3584-.046-2.1416-.0777-4.0943-.0269-2.0164-.0538-7.0124-.0269-7.9523.0191-.7434.7563-1.1063.9916-1.295 1.3249-1.043 3.297-2.834 5.2498-6.0231.7162-1.1698 1.0777-2.7407 1.0744-2.7485 0 0-.9256 1.4173-1.3441 2.0938-1.6167 2.5915-2.9165 3.9105-5.0109 5.5242-.7659.5928-1.026.3501-1.026-.2206-.0075-2.9766-.0995-11.4774-.542-13.92787-.434 2.45047-.507 10.95127-.5133 13.92787zM49.9988.202935c.1046 0 .2885.009561.2885.009561 2.0453.321664 3.4468 2.710234 4.068 4.419004.1746.4822.672 3.23997 3.0304 3.30813 3.1037.08699 2.8911-2.79933 4.9646-2.71234 1.2872.05411 2.251 1.65168 2.3649 3.20858.2377 3.18253-.8561 5.23663-1.8167 7.27513-.507 1.0714-3.0208 5.3924-.4627 7.0536 3.2334 2.0956 4.8375-3.7252 9.3297-2.7043 1.6547.3743 2.2 2.1447 2.0131 3.7661-.7321 6.3975-13.5269 13.4825-10.3823 16.7033 2.1111 2.1605 6.6605-4.0672 8.5911-1.0158.3168.4959.4849 1.089.2759 1.8735-.374 1.4092-1.287 2.5709-1.9847 3.6883-1.7593 2.8388-3.842 5.3003-5.8931 7.8778-1.4553 1.8227 2.3999.4753 3.1416 1.8783.4723.8986.2407 2.0047-.168 2.7563-1.3473 2.4758-3.9595 3.9278-6.2829 5.4494-3.4654 2.2732-7.447 6.4354-8.4264 11.1366-.4122 1.945-.7354 6.494-.7545 8.7337 1.2553-1.3316 2.6567-3.7852 4.9075-5.6745.5007-.4249-.0066-1.1824-.3997-1.899-.9067-1.6672-1.4613-3.5317-.0888-4.5365.7988-.5832 1.2113-.588 1.7372-.6466.6343 3.527 5.7824 7.7478 7.9665 7.9507-.0601.4739-.0601.702-.4977 1.36-.4879.7432-1.753 1.1918-4.045.3931-.4407-.1585-1.4107-.8798-1.823-.9923-.4152-.1142-1.2012-.0667-1.4675.1441-3.9087 3.1178-6.5905 9.6544-4.7108 10.5486 1.0968.4407 3.1165-.5264 4.8408-1.3108 3.9467-1.7895 7.7508-4.8552 11.2604-8.8796.3707-.4296.808-.8482 2.8654-.8858.6182-.0065 1.2334-.0335 1.6424-.0699 0 0 5.598-.4436 6.9202-1.3297-3.3858.2612-5.3068.6701-8.2168.5022-.7578-.0126-1.2714-.3265-.8086-.9384 1.5186-2.0256 4.3117-6.882 4.9679-8.2832.3835-.8083.878-1.1001 1.2648-1.2253.4562-.1393 2.9479-.9653 3.5156-1.162 2.9036-1.0269 6.914-3.0337 7.9504-4.4761-3.2208 1.4947-6.1182 2.9452-9.843 3.9341 0 0-1.5788.4373-1.0084-.8353 1.5662-3.4492 2.8089-6.9122 4.0199-10.8182.2503-.7859.8526-1.1566 1.2173-1.3709.5612-.331 2.8373-1.6753 4.0229-2.455 2.2663-1.4902 3.7566-2.4382 4.1814-3.4429 0-.003-1.5536 1.0397-2.2128 1.417-1.5246.8747-3.3637 2.0259-5.3957 3.0546-.507.2583-1.1282.1393-.9288-.6484.945-3.7757 1.3823-6.9361 1.8167-11.0194.0538-.5055.4119-1.1028.6974-1.3662.4502-.4218 4.6857-3.964 5.3066-5.4877-1.5055 1.1796-4.1398 3.6886-4.9293 4.1879-.2409.1554-.8275.3423-.7991-.4123.1301-3.2014.0825-3.5027.1301-4.7756.1937-5.2007-.3519-5.7962-.3519-5.7962l-.0954 1.9781c-.4277 16.7125-4.3648 30.4613-9.8586 40.8385-.2283.4359-.5135.1205-.3934-.4896.3268-1.6643-.1076-5.3165 1.3411-5.4764.9608-.1061 1.5058-3.3335 1.4361-5.5206-.0663-2.1877-.2059-5.2656 1.0272-5.2656 1.2299 0 1.9811-2.733.1363-7.3834-1.8451-4.6504.4757-4.8533 1.2998-4.5807 2.8783.9605.6846-5.0576-.2759-7.2497-1.3061-2.9898-.2756-4.1341 1.4391-3.5539 1.7438.5991 1.9022-4.882 2.1874-7.1615.6529-5.332 4.4698-1.0777 4.4698-1.0777 2.0227 2.4505 2.7548 6.5747 3.9533 7.5511 1.043.8528 2.7739-1.081 3.8579.4409 2.3144 3.2618-3.9213 7.7983-3.0843 11.2409.2407 1.0176 1.1695 1.3536 2.4538 1.2066.4499-.0494 1.252-.4933 2.0379-.5504 1.2699-.0948 2.17.8275 2.3922 1.7139.7319 2.9464-4.1354 8.0027-5.5652 9.6956-.6658.794-1.5408 1.4439-2.1019 2.3772-.3169.5298-.6974 1.4012-.1492 2.232.6502.9937 2.1369.1569 3.2558.3393 1.1507.1916 2.1273 1.5117 1.9686 3.1541-.2188 2.3207-3.9784 5.9472-6.7744 7.8778-.3294.2266-2.8815 1.6909-3.4172 2.4807-1.2682 1.8639 2.292 2.5709 3.1416 3.1969.6116.4469 1.4361 1.417 1.084 2.9467-.618 2.7087-5.7948 5.619-9.0189 6.6937-1.9431.6481-5.5128 2.2032-5.5128 2.2032-1.4457.7575.8561 3.2905-1.154 5.0688-.0224.0222-.0251.0918-.0568.1125-.9892.6101-2.5237.6834-3.8011.9339-4.9457.9793-11.7957.0266-15.6067 2.333-4.8285 2.9289-3.1888 9.2328-2.894 10.1478.0887.275-.0287.648-.1743.716-.745.349-1.6048.934-2.9016.961 0 0-.1154.003-.2472.003-.1298 0-.2472-.003-.2472-.003-1.2966-.027-2.1539-.612-2.8989-.961-.1444-.068-.2634-.441-.1731-.716.2933-.915 1.9291-7.2189-2.8974-10.1478-3.8073-2.3064-10.6612-1.3537-15.6031-2.333-1.2824-.2505-2.8138-.3238-3.8044-.9339-.0314-.0207-.0314-.0903-.0521-.1125-2.0114-1.7783.2934-4.3113-1.1587-5.0688 0 0-3.5662-1.5551-5.5128-2.2032-3.2224-1.0747-8.39762-3.985-9.01733-6.6937-.35022-1.5297.47398-2.4998 1.08251-2.9467.85302-.626 4.41292-1.333 3.14332-3.1969-.5361-.7898-3.08787-2.2541-3.41763-2.4807-2.79409-1.9306-6.55578-5.5571-6.7759-7.8778-.15391-1.6424.81942-2.9625 1.97164-3.1541 1.11893-.1824 2.60444.6544 3.25883-.3393.54384-.8308.1649-1.7022-.15506-2.232-.55807-.9333-1.43284-1.5832-2.09892-2.3772-1.42794-1.6929-6.300379-6.7492-5.568198-9.6956.225142-.8864 1.130148-1.8087 2.395058-1.7139.78636.0571 1.58837.501 2.03855.5504 1.28092.147 2.20938-.189 2.45356-1.2066.83693-3.4426-5.39875-7.9791-3.08134-11.2409 1.0811-1.5219 2.81205.4119 3.85651-.4409 1.19658-.9764 1.9304-5.1006 3.95-7.5511 0 0 3.8167-4.2543 4.4745 1.0777.2789 2.2795.4407 7.7606 2.1843 7.1615 1.7132-.5802 2.742.5641 1.4361 3.5539-.9576 2.1921-3.1529 8.2102-.2743 7.2497.8209-.2726 3.1431-.0697 1.2997 4.5807-1.8467 4.6504-1.0952 7.3834.1331 7.3834 1.2348 0 1.0968 3.0779 1.0271 5.2656-.0666 2.1871.4771 5.4145 1.4376 5.5206 1.4534.1599 1.016 3.8121 1.3474 5.4764.117.6101-.1696.9255-.3963.4896-5.4969-10.3772-9.4312-24.126-9.8591-40.8385l-.0953-1.9781s-.5421.5955-.3531 5.7962c.0475 1.2729 0 1.5742.1315 4.7756.0286.7546-.5581.5677-.8005.4123-.7893-.4993-3.42537-3.0083-4.92628-4.1879.62135 1.5237 4.84698 5.0659 5.30508 5.4877.2806.2634.645.8607.7004 1.3662.4267 4.0833.8673 7.2437 1.8168 11.0194.1963.7877-.4234.9067-.9255.6484-2.0419-1.0287-3.8772-2.1799-5.40535-3.0546-.65615-.3773-2.20785-1.42-2.20785-1.417.41992 1.0047 1.91312 1.9527 4.1767 3.4429 1.1856.7797 3.4647 2.124 4.0272 2.455.3681.2143.9672.585 1.2112 1.3709 1.2159 3.906 2.4536 7.369 4.0212 10.8182.5786 1.2726-1.0049.8353-1.0049.8353-3.7231-.9889-6.6252-2.4394-9.8416-3.9341 1.035 1.4424 5.0455 3.4492 7.9508 4.4761.5643.1967 3.0529 1.0227 3.5157 1.162.3819.1252.8812.417 1.26 1.2253.6529 1.4012 3.4505 6.2576 4.9706 8.2832.46.6119-.0506.9258-.8082.9384-2.9104.1679-4.8297-.241-8.2154-.5022 1.3188.8861 6.9188 1.3297 6.9188 1.3297.4058.0364 1.0239.0634 1.6419.0699 2.0558.0376 2.4919.4562 2.8677.8858 3.509 4.0244 7.3134 7.0901 11.2567 8.8796 1.7246.7844 3.7473 1.7515 4.8423 1.3108 1.8783-.8942-.8002-7.4308-4.7122-10.5486-.2646-.2108-1.0541-.2583-1.4693-.1441-.4108.1125-1.3809.8338-1.8212.9923-2.2887.7987-3.5569.3501-4.0453-.3931-.4356-.658-.4356-.8861-.496-1.36 2.1826-.2029 7.3307-4.4237 7.9648-7.9507.5264.0586.9399.0634 1.7375.6466 1.3739 1.0048.8194 2.8693-.0903 4.5365-.3916.7166-.8989 1.4741-.3997 1.899 2.254 1.8893 3.6537 4.3429 4.9093 5.6745-.0195-2.2397-.3444-6.7887-.7534-8.7337-.9826-4.7012-4.9613-8.8634-8.4308-11.1366-2.3189-1.5216-4.9281-2.9736-6.2814-5.4494-.4057-.7516-.6392-1.8577-.1636-2.7563.7357-1.403 4.5906-.0556 3.1416-1.8783-2.0507-2.5775-4.1338-5.039-5.8962-7.8778-.6928-1.1174-1.6134-2.2791-1.9859-3.6883-.2079-.7845-.0399-1.3776.2772-1.8735 1.9292-3.0514 6.4845 3.1763 8.5942 1.0158 3.1449-3.2208-9.6468-10.3058-10.3836-16.7033-.1871-1.6214.3549-3.3918 2.0081-3.7661 4.4969-1.0209 6.1008 4.7999 9.3345 2.7043 2.5565-1.6612.0457-5.9822-.4628-7.0536-.9638-2.0385-2.0558-4.0926-1.8164-7.27513.1124-1.5569 1.0747-3.15447 2.365-3.20858 2.0699-.08699 1.8591 2.79933 4.9657 2.71234 2.3587-.06816 2.8517-2.82593 3.0227-3.30813.623-1.70877 2.0289-4.09734 4.0719-4.419004 0 0 .1838-.009561.287-.009561"/></g><defs><clipPath id="clip0_48_438"><path fill="#fff" transform="translate(0 .203125)" d="M0 0h100v105.593H0z"/></clipPath></defs></svg>
