<svg width="447" height="471" viewBox="0 0 447 471" fill="none" xmlns="http://www.w3.org/2000/svg">
  <g clip-path="url(#clip0_36_324)">
    <path
      d="M139.074 298.279C151.737 285.836 180.594 309.054 183.373 312.856C180.353 323.051 163.994 339.608 152.74 343.13C152.041 343.355 123.663 313.422 139.074 298.279Z"
      fill="black" />
    <path
      d="M307.596 298.279C294.926 285.836 266.054 309.054 263.284 312.856C266.309 323.051 282.669 339.608 293.922 343.13C294.614 343.355 322.993 313.422 307.596 298.279Z"
      fill="black" />
    <path
      d="M220.976 97.8786C220.976 100.424 219.809 101.507 216.396 98.8626C207.064 91.6653 201.252 85.7827 194.054 74.224C192.189 71.2066 188.053 64.8853 188.053 64.8853C188.032 64.92 189.65 71.9266 192.866 77.144C201.577 91.368 210.329 99.356 216.246 104.008C217.3 104.849 220.593 106.468 220.68 109.784C220.805 113.976 220.68 136.259 220.537 145.252C220.425 153.961 220.17 157.455 220.226 163.513C220.304 166.969 218.161 167.323 215.998 165.924C211.777 163.172 208.885 161.689 204.744 158.911C192.612 150.711 183.337 142.707 170.11 133.361C171.905 137.271 182.412 146.609 184.814 148.624C192.612 155.205 200.864 161.441 209.169 167.351C210.032 167.959 213.729 170.759 216.79 172.555C219.724 174.265 220.276 176.329 220.197 178.791C220.425 183.06 220.141 193.856 220.304 202.033C220.304 210.616 220.48 228.432 220.516 241.547C220.616 243.787 218.966 244.975 216.133 243.109C207.31 237.332 201.577 234.067 193.093 227.781C180.856 218.775 170.104 209.996 170.11 209.896C170.11 209.84 173.086 216.28 180.99 222.705C189.205 229.407 197.546 236.061 206.334 242.303C210.138 245.003 214.324 247.661 218.452 250.108C220.128 251.252 220.741 253.225 220.741 254.152C220.813 272.327 221.554 296.611 223.322 308.827C225.104 296.611 225.824 272.327 225.91 254.152C225.91 253.225 226.545 251.252 228.2 250.108C232.333 247.661 236.517 245.003 240.336 242.303C249.101 236.061 257.444 229.407 265.672 222.705C273.562 216.28 276.545 209.84 276.56 209.896C276.56 209.996 265.8 218.775 253.582 227.781C245.072 234.067 239.358 237.332 230.522 243.109C227.692 244.975 226.037 243.787 226.142 241.547C226.185 228.432 226.37 210.616 226.37 202.033C226.489 193.856 226.234 183.06 226.469 178.791C226.377 176.329 226.929 174.265 229.861 172.555C232.941 170.759 236.617 167.959 237.494 167.351C245.778 161.441 254.05 155.205 261.854 148.624C264.26 146.609 274.749 137.271 276.56 133.361C263.325 142.707 254.036 150.711 241.89 158.911C237.762 161.689 234.877 163.172 230.65 165.924C228.504 167.323 226.37 166.969 226.44 163.513C226.482 157.455 226.234 153.961 226.093 145.252C225.973 136.259 225.853 113.976 225.973 109.784C226.058 106.468 229.346 104.849 230.396 104.008C236.305 99.356 245.101 91.368 253.81 77.144C257.005 71.9266 258.617 64.92 258.602 64.8853C258.602 64.8853 254.474 71.2066 252.608 74.224C245.397 85.7827 239.6 91.6653 230.258 98.8626C226.842 101.507 225.682 100.424 225.682 97.8786C225.649 84.6026 225.238 46.688 223.265 35.7587C221.329 46.688 221.004 84.6026 220.976 97.8786ZM223.322 0.00134277C223.789 0.00134277 224.609 0.0439758 224.609 0.0439758C233.732 1.47864 239.982 12.132 242.753 19.7533C243.532 21.904 245.75 34.204 256.269 34.508C270.112 34.896 269.164 22.0226 278.412 22.4106C284.153 22.652 288.452 29.7773 288.96 36.7213C290.02 50.916 285.141 60.0773 280.857 69.1693C278.596 73.948 267.384 93.22 278.793 100.629C293.214 109.976 300.369 84.0146 320.405 88.568C327.785 90.2373 330.217 98.1333 329.384 105.365C326.118 133.899 269.052 165.499 283.077 179.864C292.493 189.5 312.784 161.724 321.394 175.333C322.808 177.545 323.557 180.191 322.625 183.689C320.957 189.975 316.885 195.156 313.773 200.14C305.926 212.801 296.637 223.78 287.489 235.276C280.998 243.405 298.193 237.396 301.501 243.653C303.608 247.661 302.574 252.595 300.752 255.947C294.742 266.989 283.092 273.465 272.729 280.252C257.273 290.391 239.514 308.955 235.146 329.923C233.308 338.597 231.866 358.886 231.781 368.876C237.38 362.937 243.63 351.993 253.669 343.567C255.902 341.672 253.64 338.293 251.886 335.097C247.842 327.661 245.369 319.345 251.49 314.864C255.053 312.263 256.893 312.241 259.238 311.98C262.068 327.711 285.029 346.536 294.77 347.441C294.502 349.555 294.502 350.572 292.55 353.507C290.374 356.821 284.732 358.823 274.509 355.26C272.544 354.553 268.217 351.336 266.378 350.835C264.526 350.325 261.021 350.537 259.833 351.477C242.4 365.383 230.438 394.537 238.822 398.525C243.714 400.491 252.722 396.177 260.413 392.679C278.016 384.697 294.982 371.024 310.636 353.075C312.289 351.158 314.24 349.292 323.416 349.124C326.173 349.095 328.917 348.975 330.741 348.812C330.741 348.812 355.709 346.833 361.606 342.881C346.505 344.046 337.937 345.87 324.958 345.121C321.578 345.065 319.288 343.665 321.352 340.936C328.125 331.901 340.582 310.241 343.509 303.992C345.22 300.387 347.425 299.085 349.15 298.527C351.185 297.905 362.298 294.221 364.83 293.344C377.781 288.764 395.668 279.813 400.29 273.38C385.925 280.047 373.002 286.516 356.389 290.927C356.389 290.927 349.348 292.877 351.892 287.201C358.877 271.817 364.42 256.372 369.821 238.951C370.937 235.445 373.624 233.792 375.25 232.836C377.753 231.36 387.905 225.364 393.193 221.887C403.301 215.24 409.948 211.012 411.842 206.531C411.842 206.517 404.913 211.168 401.973 212.851C395.173 216.752 386.97 221.887 377.908 226.475C375.646 227.627 372.876 227.096 373.765 223.583C377.98 206.743 379.93 192.647 381.868 174.435C382.108 172.18 383.705 169.516 384.978 168.341C386.986 166.46 405.877 150.661 408.646 143.865C401.932 149.127 390.182 160.317 386.661 162.544C385.586 163.237 382.97 164.071 383.097 160.705C383.677 146.427 383.465 145.083 383.677 139.405C384.541 116.209 382.108 113.553 382.108 113.553L381.682 122.376C379.774 196.916 362.214 258.237 337.712 304.521C336.693 306.465 335.421 305.059 335.957 302.337C337.414 294.915 335.477 278.625 341.938 277.912C346.224 277.439 348.654 263.044 348.344 253.289C348.048 243.532 347.425 229.804 352.925 229.804C358.41 229.804 361.761 217.615 353.533 196.873C345.304 176.132 355.654 175.227 359.33 176.443C372.168 180.727 362.384 153.885 358.1 144.108C352.274 130.773 356.87 125.669 364.518 128.257C372.296 130.929 373.002 106.483 374.274 96.316C377.186 72.5346 394.21 91.5093 394.21 91.5093C403.232 102.439 406.497 120.833 411.842 125.188C416.494 128.992 424.214 120.367 429.049 127.155C439.372 141.703 411.56 161.936 415.293 177.291C416.366 181.829 420.509 183.328 426.237 182.672C428.244 182.452 431.821 180.472 435.326 180.217C440.99 179.795 445.005 183.908 445.996 187.861C449.262 201.003 427.552 223.555 421.174 231.105C418.205 234.647 414.302 237.545 411.8 241.708C410.386 244.071 408.689 247.957 411.134 251.663C414.034 256.095 420.665 252.363 425.656 253.176C430.788 254.031 435.144 259.919 434.436 267.244C433.46 277.595 416.692 293.769 404.221 302.38C402.752 303.391 391.369 309.921 388.98 313.444C383.324 321.757 399.202 324.911 402.992 327.703C405.72 329.696 409.397 334.023 407.826 340.845C405.07 352.927 381.981 365.907 367.601 370.7C358.934 373.591 343.013 380.527 343.013 380.527C336.565 383.905 346.832 395.203 337.866 403.134C337.766 403.233 337.754 403.544 337.613 403.636C333.201 406.357 326.357 406.684 320.66 407.801C298.601 412.169 268.049 407.92 251.052 418.207C229.516 431.27 236.829 459.388 238.144 463.467C238.54 464.696 238.016 466.357 237.366 466.662C234.044 468.216 230.209 470.825 224.425 470.945C224.425 470.945 223.91 470.96 223.322 470.96C222.744 470.96 222.22 470.945 222.22 470.945C216.437 470.825 212.613 468.216 209.29 466.662C208.646 466.357 208.116 464.696 208.518 463.467C209.826 459.388 217.122 431.27 195.596 418.207C178.614 407.92 148.045 412.169 126.004 407.801C120.284 406.684 113.454 406.357 109.036 403.636C108.896 403.544 108.896 403.233 108.803 403.134C99.8319 395.203 110.112 383.905 103.635 380.527C103.635 380.527 87.7294 373.591 79.0475 370.7C64.6751 365.907 41.5929 352.927 38.8289 340.845C37.2669 334.023 40.9429 329.696 43.657 327.703C47.4617 324.911 63.3393 321.757 57.6767 313.444C55.2855 309.921 43.9043 303.391 42.4335 302.38C29.9715 293.769 13.1939 277.595 12.2121 267.244C11.5257 259.919 15.8669 254.031 21.0059 253.176C25.9965 252.363 32.6221 256.095 35.5407 251.663C37.9663 247.957 36.2762 244.071 34.8491 241.708C32.3601 237.545 28.4585 234.647 25.4877 231.105C19.1189 223.555 -2.61286 201.003 0.652765 187.861C1.65693 183.908 5.69339 179.795 11.3351 180.217C14.8423 180.472 18.4194 182.452 20.4273 182.672C26.1403 183.328 30.2814 181.829 31.3705 177.291C35.1033 161.936 7.2913 141.703 17.6273 127.155C22.4491 120.367 30.1694 128.992 34.8278 125.188C40.1647 120.833 43.4377 102.439 52.4455 91.5093C52.4455 91.5093 69.4683 72.5346 72.4022 96.316C73.6461 106.483 74.3679 130.929 82.1445 128.257C89.7855 125.669 94.3741 130.773 88.5497 144.108C84.2789 153.885 74.4871 180.727 87.3262 176.443C90.9877 175.227 101.345 176.132 93.1231 196.873C84.8866 217.615 88.2382 229.804 93.7169 229.804C99.2241 229.804 98.6085 243.532 98.2975 253.289C98.0007 263.044 100.426 277.439 104.71 277.912C111.192 278.625 109.241 294.915 110.719 302.337C111.241 305.059 109.963 306.465 108.952 304.521C84.4346 258.237 66.8871 196.916 64.9789 122.376L64.5538 113.553C64.5538 113.553 62.1361 116.209 62.9789 139.405C63.1907 145.083 62.9789 146.427 63.5653 160.705C63.6929 164.071 61.0762 163.237 59.995 162.544C56.4746 160.317 44.7174 149.127 38.0231 143.865C40.7945 150.661 59.6413 166.46 61.6846 168.341C62.9361 169.516 64.5611 172.18 64.8085 174.435C66.7117 192.647 68.6767 206.743 72.9117 223.583C73.7871 227.096 71.0231 227.627 68.7835 226.475C59.6767 221.887 51.4907 216.752 44.6751 212.851C41.7486 211.168 34.8278 206.517 34.8278 206.531C36.7007 211.012 43.3606 215.24 53.4565 221.887C58.7445 225.364 68.9095 231.36 71.4183 232.836C73.0601 233.792 75.7319 235.445 76.8205 238.951C82.2434 256.372 87.7637 271.817 94.7554 287.201C97.3361 292.877 90.2737 290.927 90.2737 290.927C73.6679 286.516 60.7241 280.047 46.3789 273.38C50.995 279.813 68.8825 288.764 81.8403 293.344C84.357 294.221 95.4565 297.905 97.521 298.527C99.2241 299.085 101.451 300.387 103.14 303.992C106.053 310.241 118.53 331.901 125.31 340.936C127.362 343.665 125.085 345.065 121.705 345.121C108.725 345.87 100.164 344.046 85.0637 342.881C90.9455 346.833 115.923 348.812 115.923 348.812C117.732 348.975 120.489 349.095 123.246 349.124C132.415 349.292 134.36 351.158 136.036 353.075C151.686 371.024 168.654 384.697 186.242 392.679C193.934 396.177 202.956 400.491 207.84 398.525C216.217 394.537 204.27 365.383 186.822 351.477C185.642 350.537 182.121 350.325 180.269 350.835C178.437 351.336 174.11 354.553 172.146 355.26C161.938 358.823 156.282 356.821 154.104 353.507C152.161 350.572 152.161 349.555 151.892 347.441C161.626 346.536 184.588 327.711 187.416 311.98C189.764 312.241 191.608 312.263 195.165 314.864C201.293 319.345 198.82 327.661 194.762 335.097C193.016 338.293 190.753 341.672 192.98 343.567C203.033 351.993 209.276 362.937 214.876 368.876C214.789 358.886 213.34 338.597 211.516 329.923C207.133 308.955 189.388 290.391 173.913 280.252C163.57 273.465 151.933 266.989 145.897 255.947C144.088 252.595 143.046 247.661 145.168 243.653C148.449 237.396 165.642 243.405 159.18 235.276C150.033 223.78 140.742 212.801 132.881 200.14C129.792 195.156 125.686 189.975 124.024 183.689C123.097 180.191 123.846 177.545 125.261 175.333C133.865 161.724 154.182 189.5 163.592 179.864C177.618 165.499 120.566 133.899 117.28 105.365C116.445 98.1333 118.863 90.2373 126.236 88.568C146.293 84.0146 153.446 109.976 167.869 100.629C179.272 93.22 168.073 73.948 165.805 69.1693C161.506 60.0773 156.636 50.916 157.704 36.7213C158.205 29.7773 162.497 22.652 168.252 22.4106C177.484 22.0226 176.544 34.896 190.4 34.508C200.92 34.204 203.118 21.904 203.881 19.7533C206.66 12.132 212.93 1.47864 222.042 0.0439758C222.042 0.0439758 222.862 0.00134277 223.322 0.00134277Z"
      fill="black" />
  </g>
  <defs>
    <clipPath id="clip0_36_324">
      <rect width="446.013" height="470.96" fill="white" transform="translate(0.321045)" />
    </clipPath>
  </defs>
</svg>
