<svg width="100" height="100" viewBox="0 0 100 100" fill="none" xmlns="http://www.w3.org/2000/svg"><g clip-path="url(#clip0_36_387)" fill="currentColor"><path d="M50.0002.9197C22.9374.9197.919588 22.937.919588 50.0006c0 27.0622 22.017812 49.0797 49.080612 49.0797 27.0628 0 49.0801-22.0175 49.0801-49.0797C99.0803 22.937 77.063.9197 50.0002.9197zm0 99.0803C22.43 100 0 77.57 0 50.0006 0 22.4294 22.43.000005 50.0002.000005 77.5706.000005 100 22.4294 100 50.0006 100 77.57 77.5706 100 50.0002 100z"/><path d="M50.0002 19.6537c-16.7329 0-30.3454 13.6129-30.3454 30.3464 0 16.7323 13.6125 30.345 30.3454 30.345 16.733 0 30.3451-13.6127 30.3451-30.345 0-16.7335-13.6121-30.3464-30.3451-30.3464zm0 61.6109c-17.2397 0-31.2645-14.025-31.2645-31.2645 0-17.2397 14.0248-31.2659 31.2645-31.2659 17.2392 0 31.2638 14.0262 31.2638 31.2659 0 17.2395-14.0246 31.2645-31.2638 31.2645"/><path fill-rule="evenodd" clip-rule="evenodd" d="M82.2181 50.0001c0-17.7645-14.451-32.2163-32.2141-32.2163-17.7634 0-32.2141 14.4518-32.2141 32.2163 0 17.763 14.4507 32.2136 32.2141 32.2136 17.7631 0 32.2141-14.4506 32.2141-32.2136zm-80.25118 0c0-26.5232 21.57838-48.10177 48.10138-48.10177 26.5234 0 48.1011 21.57857 48.1011 48.10177 0 26.5224-21.5777 48.1005-48.1011 48.1005-26.523 0-48.10138-21.5781-48.10138-48.1005zm44.33358 39.775c1.2397.7695 1.9592 1.4265 1.8743 2.527-.0794 1.0406-.8616 1.5104-1.5674 1.4554-.742-.0567-1.4389-.7001-1.3382-2.0043.0603-.7768.394-1.522 1.0313-1.9781zm1.449-.538l.0247-.0112c.4025-.1816 1.359-.6134 1.44-1.6696.075-.9804-.7774-1.9363-2.0336-2.0332-1.1353-.0877-2.2276.6467-2.3247 1.9148-.0949 1.228.763 1.8719 1.1749 2.181l.0045.0034-.0668.027c-.328.1328-.6731.2723-.9755.5308-.3864.3438-.6811.8864-.7288 1.4961-.1041 1.3515 1.0098 2.3521 2.2067 2.4431 1.4712.1134 2.5971-1.063 2.6946-2.3434.102-1.3241-.9102-2.1341-1.3876-2.5161l-.0284-.0227zm-.2306-.1262c-.8962-.5615-1.6754-1.055-1.6002-2.0357.0565-.7299.5902-1.2546 1.2598-1.2035.7175.0557 1.236.6735 1.1686 1.5467-.0506.6453-.3274 1.2733-.8282 1.6925zm-5.1693-4.4283c-1.0085.9184-2.1643.8525-2.7227.8175l-.0839.351c1.3606.2872 1.3389.3811.957 2.0355l-.0011.005-.7068 2.9648-.0007.0025c-.3472 1.4066-.3615 1.4648-1.778 1.2009l-.0886.374c.7398.1512 1.1979.2482 1.8167.3955.7237.1733 1.3857.3431 2.0808.5329l.0887-.3727c-1.363-.3871-1.3524-.4344-.9569-2.1407l.7255-3.0458c.3574-1.4993.4869-1.9021.7874-2.8365l.0469-.146-.1643-.1379zM18.9911 81.131l.0001.0002c.0984.1237.195.2453.2898.3629l.2762-.2346c-.4784-.7059-.4604-.8248.292-1.4764l2.462-2.082.0067-.0058c.5701-.497 1.3255-1.1555 1.3965-2.2922.0362-.7118-.2165-1.5347-.8298-2.2604-.6433-.7601-1.7906-1.5224-3.2156-1.0879-.7009.2221-1.198.5984-3.0876 2.0772-.1035.088-.4322.3657-1.0476.8121-.3491.2515-.4335.2925-.5486.3305-.3223.109-.5374-.0928-.8337-.4062l-.2761.2334c.2718.3037.5503.6165.8134.9273.2712.3191.5396.653.8031.9807l.0637.0793.2762-.234c-.6685-.9313-.6257-.9679.8254-2.195 2.2895-1.9357 3.0151-2.3563 3.9895-2.306.6479.0295 1.1937.3234 1.5881.7902.4451.5263.8516 1.5158.3058 2.5702-.3042.5824-.8108 1.0118-1.2676 1.3989l-.0049.0041-1.7361 1.4677-.0012.0011c-1.1891.9903-1.242 1.0343-1.9968.2805l-.2762.2334c.1224.1388.2439.2747.3646.4097h.0001v.0001c.2337.2614.4642.5191.6908.787.2321.2732.4588.5585.6775.8337l.0001.0001.0002.0002zm-6.3574-7.6395l.0175.0376.3233-.1632c-.1589-.4891-.1701-.7374-.0449-1.2687l4.5803-2.4142c.8954-.4374 1.0499-.5084 1.2429-.4849.2793.0404.457.3428.6252.6504l.318-.1739c-.2318-.4009-.4698-.8126-.6862-1.2104-.239-.4361-.4621-.8681-.6899-1.3107l-.318.1729c.4001.8517.4877 1.1762-.1007 1.5632-.5186.3473-4.0235 2.273-4.8006 2.665l3.6509-7.8757-.0752-.1645c-.8988.3989-5.6013 2.4641-6.135 2.6844-.88883.3681-.99726.232-1.3831-.4095l-.32343.1632.12242.2297.00006.0002.00007.0001h.00002l.00003.0001h.00001c.1835.3441.3408.6391.50753.9719.19253.382.37264.7604.55229 1.1378l.0001.0001v.0001l.0593.1246.3222-.1628c-.52893-1.126-.53593-1.1736.6226-1.7411.4884-.2366 1.1008-.5293 4.0005-1.8302-.5682 1.2044-1.9805 4.2164-2.4973 5.3759-.3326.7524-.5002 1.0472-.7384 1.4662l-.0771.1358c.1684.3074.3305.6051.4889.9188.1516.3009.2935.606.4357.9117v.0001zm-4.28332-9.3889c-.10089-.5002-.21811-1.0084-.36617-1.5071-.14303-.4773-.31719-.9444-.50577-1.4187l.34683-.1043c.37153.8922.46969.8638 1.83536.4559l3.87007-1.1531c1.322-.3946 1.4387-.4416 1.2534-1.3776l.3469-.1032.0392.156.0001.0002c.1094.4359.2131.8491.3376 1.2655.152.5104.325 1.0128.4961 1.5049l-.347.104c-.3627-.8602-.4774-.8488-1.4457-.5726-.4257.1152-.8598.2439-1.2928.3739l-1.9843.5909c-1.32992.4087-1.64051.5138-1.89111.623-.45821.2076-.47803.3791-.34589 1.0586l-.34682.1037zm-1.35712-5.7532c.07764.5496.14566 1.1228.19727 1.6527l.36953-.0519c-.01035-.7305.17713-.9394 1.03741-1.4031l6.18883-3.2672-.034-.2474c-.5027-.1228-1.0055-.2463-1.5083-.3699l-.0031-.0007-.0033-.0009-.0011-.0002-.0002-.0001h-.0002c-1.5424-.379-3.0857-.7583-4.63318-1.1181l-.06191-.0149c-1.56482-.3751-1.79619-.4305-2.05539-1.2292l-.36967.0518c.08427.435.15592.8689.21912 1.3172.06178.4374.1103.8642.149 1.3044l.37014-.052c-.04851-.4272-.10331-1.0594.43458-1.134.1887-.0278.72883.0778 1.01801.1343l.05344.0104c1.26976.2571 2.66336.5858 4.71936 1.0741-.8776.4057-.973.4553-1.7819.8767l-.0341.0177c-.4992.2641-3.17097 1.6561-3.4964 1.7021-.45727.0645-.53252-.2998-.67442-.9867l-.00088-.0042-.36927.0523c.10018.5571.19173 1.1272.27063 1.6868zm-.88274-7.4953l.33694-5.8617c.91322-.3212 1.15596-.4099 2.01578-.7679l.14466.2236c-1.06859.8567-1.06859.8567-1.26043 1.0491-.48036.4596-.59213.8279-.69015 2.1366l-.0663 1.1629 3.24131.1856.06467-1.1184c.07165-1.0598-.09762-1.2624-1.24628-1.5891l.01632-.2939c.53048.0531 1.07093.0965 1.61346.1273.52.0291 1.0401.0482 1.5491.0542l-.017.2937c-1.3019.1858-1.3843.4314-1.4554 1.6843l-.0504.8702 1.9196.1094.0009.0001c1.5463.0773 1.5921.0796 1.704-1.466l.0342-.5979.0001-.0026c.0419-.9366.0505-1.1288-1.7769-2.6148l.1501-.2412c.942.3707 1.1749.4527 2.109.7669l-.3643 6.3465-.3616-.0209c-.0184-.8614-.23-.9195-.7492-.9605-.5402-.0533-1.0823-.0961-2.2117-.1613l-2.12349-.122c-.34862-.0199-1.50185-.0856-1.72095-.0076-.29933.0854-.34543.2969-.44508.8349l-.36096-.0195zm1.08173-8.922l-.0133.0296-.34899-.0951c.0651-.2363.13354-.4745.20197-.7127.06743-.2348.13486-.4696.1991-.7024.02769-.0999.10785-.4009.18787-.7015.07725-.2901.15436-.5797.18398-.6872.14954-.5446.3528-1.2397.65322-1.6506.48229-.6875 1.32384-.89 2.0222-.6972.2401.0653.617.229.9425.5404.5309.5021.6148.9927.6618 1.267.0057.0333.0108.0633.0162.0899 0 0 2.8173-.593 3.1318-.6577.7192-.1468.8599-.3999 1.1098-.937l.3432.1129-.04.108-.0001.0001-.0001.0003v.0002c-.0962.2595-.1897.5118-.2773.7758-.092.2796-.2487.8242-.2487.8242-.172.0384-.3194.0795-.4785.1238-.2575.0718-.5457.1522-1.0193.2435-.8793.1693-1.5943.3261-2.3348.4885l-.1366.0299s-.1826.7082-.2249.8604c-.0201.0738-.0424.1447-.0647.2154V40.8009c-.0238.0754-.0475.1507-.0684.2294 1.3739.3769 1.8994.5108 2.2525.5961.7645.1763.8107.0363 1.0944-.8245l.0332-.1005.3531.079c-.1426.5348-.2829 1.0719-.4033 1.6133-.0944.4284-.1661.8235-.2514 1.2938l-.0557.3064-.354-.079c.1153-.9358.0724-.9579-1.4943-1.4006l-3.14084-.8648c-.30524-.0843-1.46204-.4023-1.8133-.4043-.30847-.0045-.41206.2267-.61831.6869zm.7217-2.6357l-.00802.0274-.17689.6427 3.47846.9573.0095-.027.0001-.0001v-.0001c.0525-.1498.1021-.2911.1419-.4352.2694-.9808.1173-1.4108-.0636-1.7307-.2215-.3896-.6061-.6949-1.163-.8473-.51181-.1425-1.02697-.1068-1.42587.1108-.49452.281-.59793.6353-.79258 1.3022zm6.77845-4.1586l.0356.009c.4029.1019.7844.1984 1.2706.1319.759-.1043 1.3995-.5816 1.6954-1.18.2952-.5983.342-1.6865-.6818-2.1931-.3453-.171-.8517-.2697-1.4271.0268-.3429.1835-.4937.3359-1.2042 1.0562-.4529.4581-1.4009 1.4028-2.7699.7243-1.1447-.5661-1.61561-1.8595-.9942-3.1164.3233-.6512.7503-.9415 1.144-1.2091l.0145-.0099-.1071-.5717 2.1929.7954-.0646.2592c-.5622-.1142-2.1774-.4214-2.819.8758-.4323.8723-.0536 1.6151.5535 1.9145.3354.167.7245.2203 1.0982.1033.4604-.1393.7422-.4276 1.3416-1.0534l.0042-.0044c.5749-.6001 1.5458-1.6137 3.0636-.8625 1.3172.651 1.6216 2.1531.9797 3.4515-.4265.8602-.9513 1.1677-1.291 1.3667l-.0242.0142.0888.7376c-1.0487-.5064-1.2977-.6164-2.2089-.9919l.1094-.274zm-.827-9.7164c-.2928.4296-.6126.8417-.9358 1.2375l.2994.2033c.4437-.5337.5894-.6264 1.0387-.4029.2435.1247.5214.2992 1.6788 1.0721l1.7124 1.1628c.3743.2531.7491.508 1.1071.7649.8274.5751.9087.6569.4717 1.482l.2988.2028c.2728-.4435.5534-.8958.8525-1.3362.251-.3698.5126-.7209.7894-1.0924l.0001-.0002.0731-.0981-.2991-.2033c-.6083.7342-.7179.6751-1.8595-.1005l-3.3407-2.268c-1.1799-.7997-1.2631-.8574-.8082-1.7106l-.2992-.2026c-.249.4465-.4998.8773-.7795 1.2894zm2.9297-.8538c-.4575-.9036-.5773-1.1234-1.0986-1.9932l4.4719-4.8153c.9381.469 1.1572.5643 2.0676.9473l-.0862.2591c-.7143-.0764-1.8967-.2014-2.2605-.0919-.3321.1086-.4937.2829-1.2775 1.1443l4.1031 3.8099c.2899.2684.7376.6686.9251.7661.309.149.5118-.0038 1.1387-.5787l.2653.2456c-.1425.1479-.2849.294-.427.4397-.2811.2883-.5609.5753-.8367.8724-.279.3003-.5507.6075-.8225.9147l-.0002.0003-.001.0011-.0005.0005-.0005.0006-.0005.0006-.0005.0006h-.0001c-.1394.1577-.2789.3154-.4195.4722l-.2656-.2459c.7535-.8457.6339-1.0321.4915-1.2271-.1528-.2181-.5426-.5962-.8089-.8427l-4.1023-3.8101-.6467.6972c-.2685.3059-.4449.513-.4427.9929-.0075.1906.005.2646.1778 1.2871v.0001c.0309.1833.067.397.1091.6473l-.2521.1053zm6.0358-8.9661c-.5038.3633-.9513.6723-1.5238 1.0564l.2175.3038c.6457-.3826.7585-.3794 1.6945-.0087.5864.2379 1.1731.4726 1.7596.7074l.0005.0001.0008.0004.0008.0003.0009.0004c.6375.2551 1.275.5102 1.9118.7692l.6877.9535c.2784.387.6795.9615.7155 1.1866.0492.299-.151.4861-.6803.9515l.2109.2931.0554-.0431.0004-.0003c.446-.3473.892-.6946 1.3411-1.0186.4819-.3476.978-.678 1.473-1.0077l.011-.0073-.2103-.2939c-.7154.4595-.9778.5799-1.3153.2084-.1877-.2102-.3496-.4289-.7744-1.0032l-.1749-.2363-.6937-.9637-.2049-2.4878c-.1097-1.6229-.1007-1.9769.4753-2.5321l-.2189-.303c-.3342.2696-.6769.5307-1.0253.7814-.358.2579-.7227.507-1.1028.7543l.2181.3013.0009-.0005c.3895-.2518.7602-.4914 1.005-.1519.1111.1535.1309.3317.1755.7329l.002.018.2642 2.8212-2.6908-1.141c-.1962-.0963-.5251-.263-.6111-.3826-.2187-.3025.0159-.5009.7327-1.0723l-.2253-.3118c-.4915.382-.9989.7615-1.5033 1.1256zm13.3453-7.41749c-1.8927.69206-3.2108 2.76799-2.42 5.17529.7651 2.3325 3.1043 3.3974 5.2107 2.7058 1.881-.6173 3.3747-2.6674 2.5408-5.2028-.8111-2.47174-3.2464-3.43402-5.3315-2.67829zm.1385.31161c1.9092-.71096 3.3922 1.33894 3.8546 2.74618.5321 1.6228.5011 3.9189-1.2621 4.4987-1.7618.5777-3.2504-1.0882-3.8427-2.8936-.4907-1.4939-.5202-3.68688 1.2502-4.35128zm11.8219-2.41l-5.7592.61366.0388.36037c.9399-.0326.9464.02433 1.1306 1.64863l.0006.00569.4141 3.88013c.0856.9008.0812.9698.0719 1.0948-.0279.3793-.2571.4718-.8477.5906l.0382.3617c.1679-.0218.3344-.0444.5005-.0669.3677-.0499.733-.0995 1.1047-.1392.3315-.0354.669-.0618 1.0051-.0881.1881-.0147.3757-.0294.5617-.0456l-.0382-.3594c-.5896.0187-.8859.0141-1.0556-.2959-.125-.2147-.2265-1.1606-.2641-1.5192l-.1705-1.5976.8435-.089c1.016-.0748 1.2705.0677 1.6067 1.1923l.2806-.0284c-.0752-.4933-.1259-.8632-.1777-1.3471-.0315-.29684-.0663-.71807-.1012-1.14139v-.00035c-.018-.21765-.036-.43585-.0536-.63797l-.2823.02864c-.1405 1.34652-.3978 1.38512-1.613 1.51427l-.55.0587-.346-3.23823 1.4062-.15144c1.4372-.14097 1.6041.0115 3.1452 1.4193l.0099.009.1967-.18128c-.5348-.85224-.6457-1.04524-1.0959-1.85073zm11.9701 7.44428c-.9782 1.1091-2.1701 1.5853-3.6432 1.3371-2.2085-.3693-3.7162-2.2524-3.3017-4.7182.435-2.58676 2.6009-3.87497 4.6982-3.52178 1.3057.21868 1.9908.91831 2.3895 1.34134l.6491-.38464-.3585 2.33684-.2378-.01591c-.0563-.4115-.1101-.77603-.3385-1.26215-.4336-.96705-1.1859-1.47185-1.9888-1.60776-1.3718-.23022-3.006.61902-3.3907 2.90572-.3277 1.95244.4362 4.10024 2.4322 4.43454 1.4617.2464 2.3182-.615 2.7897-1.0893l.0107-.0107.2898.2549zm1.6557-1.9212c.9806-2.33646 3.3371-3.04065 5.2193-2.32372 2.0706.79572 3.279 3.11822 2.2721 5.51672-1.0323 2.4612-3.505 3.0313-5.3299 2.2648-2.0445-.8578-3.112-3.1948-2.1615-5.4578zm6.2305 2.6029c.5737-1.3669.7963-3.8856-1.1107-4.60129-1.7723-.65743-3.1873 1.01839-3.7964 2.46739-.7352 1.7526-.704 3.9862 1.0069 4.7041 1.711.7185 3.2392-.9959 3.9002-2.5702zm4.7282-2.0507l.0321.0253c.265.2086.5295.4168.8014.6174.2736.2022.545.3895.8254.5828l.0253.0175-.0072.1429v.0001c-.0245.4865-.0415.8244.0018 1.653.0623 1.2673.1598 4.5933.1966 5.9251 2.0005-2.4694 2.415-3.0076 2.7443-3.4396.7789-1.0286.7498-1.067-.2306-1.834l.2155-.2905.0893.0691c.3366.2609.6743.5225 1.0246.7825.2738.2015.5262.3793.8111.58.0941.0663.1917.135.2948.208l-.215.2911c-.6344-.3984-.7926-.4708-1.4186.2584-.3769.4376-3.6421 4.4023-4.2656 5.1642l-.1408-.1134-.2949-8.6764c-.5174.7008-2.7754 4.0005-3.0808 4.5453-.3514.6087-.1268.8604.6136 1.4409l-.2045.297c-.4032-.2917-.7974-.5766-1.2083-.86-.3726-.2564-.7694-.5161-1.158-.7704l.2055-.2983c.2883.1996.5842.3894.8521.2995.1826-.0659.2885-.2002.8902-.9943l2.9975-4.2196c-.127-.5313-.2494-.7476-.6109-1.1131l.2141-.2905zm8.4151 6.5358l-.0298-.0383-.2786.2306c.2644.4427.3307.6817.3291 1.2275l-3.9195 3.3823c-.7741.6274-.9076.7316-1.1016.7515-.2818.0235-.5237-.2308-.7563-.4928l-.27.2405.0277.0298c.3069.3293.6216.667.913.9952.2834.3182.5551.6374.83.9604l.1375.1614.27-.2389c-.5806-.7393-.7398-1.0377-.2531-1.5461.4274-.4555 3.4088-3.1196 4.0783-3.6766l-1.7864 8.4953.1106.1437c.787-.5924 4.9037-3.6621 5.3747-3.9962.7824-.5589.9187-.4505 1.4398.0876l.2774-.2324-.1566-.18-.0002-.0002c-.2622-.3012-.4856-.5578-.7277-.849-.3036-.3649-.5913-.7276-.8795-1.0924l-.2785.2314c.77.9784.7879 1.0234-.2138 1.836-.4226.3411-.9545.7635-3.4859 2.6855.2821-1.3027.98-4.5557 1.2235-5.8019.1549-.8123.2522-1.1366.3916-1.6012l.0426-.1423-.0307-.0346c-.2225-.2505-.4382-.4933-.6522-.7506-.2142-.2572-.4193-.5206-.6251-.7848l-.0003-.0004zm3.3881 55.2269c.4982.8823.6279 1.0972 1.1863 1.9423l-4.2524 5.0097c-.9579-.4274-1.1814-.5125-2.1087-.8546l.0751-.263c.7183.0459 1.9036.1172 2.262-.0088.3265-.123.4817-.3036 1.2261-1.1998l-4.2687-3.6235c-.3019-.2547-.7661-.6353-.9585-.7237-.3146-.1343-.5106.0261-1.1111.6288l-.2762-.2332c.145-.1653.2905-.3284.4357-.4912l.0001-.0002.0011-.0013.0002-.0001.0011-.0013.0005-.0005c.2573-.2885.5137-.576.7657-.8728.2706-.3191.5338-.645.797-.9709l.0011-.0014c.1276-.1579.2551-.3158.3835-.4729l.2759.2346c-.7149.8769-.5874 1.0588-.4361 1.2472.1623.2115.5689.5715.845.8057l4.268 3.6224.6154-.7233c.2549-.3181.4221-.5326.3984-1.0116-.0017-.1932-.0174-.2661-.244-1.3191v-.0001l-.0001-.0001v-.0002l-.0001-.0001V74.6403h-.0001v-.0001c-.037-.172-.0796-.3701-.1288-.5992l.2466-.1174zm5.7929-41.6605l-2.6703-5.2283-.3222.1652c.1869.5132.2541.7203.0388.9451-.1484.1765-1.1531.691-1.4787.8578h-.0002l-.0117.006-1.8941.9657c-1.0072.5153-1.4959.7517-1.9898.9792-.4678.2264-.6795.2837-1.1316-.4511l-.3221.1645 2.8908 5.661c.9642-.1997 1.2072-.2481 2.2081-.4029l.0075-.2837c-2.3277-.3586-2.4176-.5296-2.8537-1.3585l-.0015-.0028-.2728-.5332c-.6841-1.3903-.6433-1.4118.7309-2.127l1.713-.8747.3958.7756c.5711 1.1179.6236 1.3708-.4055 2.1898l.1325.2609c.4441-.2509.9014-.498 1.3654-.7352.4835-.2458.9726-.4824 1.456-.705l-.1338-.2615c-1.1562.2987-1.4054.2091-1.8785-.7436l-.5098-.9963 2.8914-1.477.5302 1.0375c.5761 1.1795.666 1.553.4836 2.1912l-.0003.0011c-.0112.0432-.0205.0793-.0306.1152-.0507.182-.1186.3592-.5271 1.4258l.2384.1203c.5607-.7435.7257-.9425 1.3519-1.6811zm-2.9063 11.5698c-1.4152-.4264-2.3446-1.3121-2.7336-2.7547-.5831-2.1623.5002-4.3171 2.913-4.9682 2.5341-.6823 4.6071.7498 5.1604 2.8043.3453 1.2772-.0059 2.1919-.2236 2.7306l.6198.4304-2.2738.6485-.0833-.2239c.3484-.2224.6586-.423 1.0046-.8317.6986-.7991.8447-1.6936.632-2.4793-.3618-1.3438-1.8147-2.475-4.0535-1.8717-1.9114.516-3.5444 2.1045-3.0179 4.0595.3854 1.43 1.5249 1.8498 2.1523 2.0809l.0146.0054-.111.3699zm6.3415.5271c-.9863-.2314-1.2281-.2983-2.1956-.5985l-.099.2553c.2079.1432.3857.2655.5383.3704l.0002.0002c.8562.5888.9184.6316 1.0511.7685.3456.3327.3707.6035.4037 1.0092l.0504.9492-5.591.2949c-.3623.0185-.905.0366-1.1678-.0066-.2398-.0326-.4571-.0766-.5386-1.2058l-.362.0187c.0145.2039.0302.4079.0459.6119l.0001.0012.0001.0013.0001.0012v.0005l.0001.0004V46.8332l.0001.0004v.0008c.032.4142.064.8286.0853 1.2434.0223.4103.0333.8162.0444 1.224l.0001.0021v.002c.0054.1966.0108.3936.0174.5917l.3624-.0191c.0221-.85.0547-1.1021.3768-1.2205.2006-.0663.7983-.1089 1.1937-.1309l5.5916-.2941c.073 1.1622.0854 1.4002-.0685 1.713-.1743.3381-1.0856 1.1004-1.6386 1.5602l.1254.2422c.9093-.388 1.1302-.4794 2.1203-.8264l-.3464-6.562zm.1646 8.4231c-.0954.5008-.1793 1.017-.2303 1.5345-.0481.4953-.0622.9941-.0674 1.5047l-.36-.035c-.0081-.9671-.1096-.977-1.527-1.1156l-.0008-.0001-4.019-.3924c-1.3725-.1349-1.4989-.1349-1.6808.8013l-.3605-.034.0164-.1146c.0662-.4623.1286-.8978.1712-1.3449.0518-.5275.0809-1.0579.1092-1.5766l.0003-.0037.3607.0344c.011.9332.121.9664 1.1221 1.0763.4306.0528.8736.0961 1.317.1394l.0213.0021 2.0603.2015c1.3861.1238 1.7136.1445 1.9866.1371.5018-.0187.5852-.1699.7201-.8506l.3606.0362zm-9.39 6.6997c-.3786 1.4438-.0115 2.6747 1.0041 3.7488l.2804-.2664-.0094-.0111c-.4293-.512-1.2101-1.4432-.8345-2.8767.5141-1.9576 2.7214-2.5255 4.6362-2.0223 2.2428.5884 2.9416 2.2935 2.5884 3.6388-.2077.7876-.7776 1.4906-1.7811 1.836-.5038.1841-.8721.2052-1.2856.2243l-.039.2348 2.295.5679-.3237-.6816c.4575-.3597 1.2164-.9789 1.5526-2.2586.5393-2.0573-.5474-4.3306-3.0854-4.9972-2.4186-.635-4.4279.6968-4.998 2.8633zm6.2072 7.5459c-.037.0651-.0744.131-.1122.1974-.1773.3118-.3616.6358-.5332.9597-.1673.3156-.3234.6313-.4817.9514l-.0002.0004-.0003.0006-.0001.0003-.0001.0001v.0001c-.0773.1562-.1551.3136-.235.4724l-.3199-.1691c.4184-.9816.3584-1.014-1.0036-1.7486l-.0023-.0012-2.0083-1.0644-.002-.001c-.5299-.2809-1.1177-.5924-1.7741-.6588-1.1808-.1144-1.9476.632-2.271 1.2412-.2853.5393-.3567 1.1553-.1428 1.768.3171.9235.9774 1.4408 3.6266 2.8432 1.6782.8911 1.7283.9161 2.3432-.0499l.3202.1687-.0319.0568c-.2113.3768-.427.7615-.6292 1.1427-.179.3382-.3538.6897-.5251 1.034l-.0326.0655-.3196-.1687c.1815-.391.2889-.6666.0675-.9253-.0784-.0931-.1481-.1544-.5118-.3856-.6245-.3936-1.0003-.5942-1.1316-.6642l-.0111-.0059c-2.0764-1.2037-2.6107-1.5242-3.0775-2.0931-.934-1.1601-.654-2.5088-.1876-3.3889.4445-.8385 1.1153-1.3799 1.7888-1.6123 1.0819-.3574 1.9752.1001 2.6486.4449l.0066.0034 2.849 1.5087c.8845.4564 1.0025.429 1.4791-.2778l.3201.1693c-.0344.0613-.0694.1233-.1049.186zm-35.7159 25.018c-.0907-1.0998-.9063-1.6342-2.2523-2.1963-.5555.5514-.7678 1.3399-.7032 2.1166.1081 1.3029.8985 1.8279 1.6395 1.7655.7055-.0581 1.4028-.6455 1.316-1.6858zm-.8869-2.9716l-.0204.0135.0333.0189c.5331.3018 1.6596.9397 1.7694 2.2619.1065 1.2805-.818 2.6208-2.2885 2.7434-1.1956.0987-2.455-.7114-2.5666-2.0623-.0506-.6111.154-1.1925.4821-1.593.2522-.2988.5663-.4898.8661-.6723l.0733-.0447-.0063-.0033c-.4558-.2401-1.4037-.7394-1.5057-1.9652-.1047-1.2681.8566-2.1655 1.992-2.2594 1.2543-.1041 2.2488.7042 2.3302 1.6842.0875 1.0561-.7914 1.6359-1.1589 1.8783zm-2.172-1.8312c.0824.981.9306 1.3437 1.9044 1.7568.4278-.4931.6012-1.1573.5474-1.8028-.072-.8735-.6817-1.4008-1.3992-1.3405-.6688.0547-1.1129.6578-1.0526 1.3865zm5.0814-.9383c.5125-.2236 1.5715-.6932 2.0493-1.9713l.2093.0482.0261.1584c.1587.9628.2279 1.3827.5931 2.8762l.7442 3.0425c.428 1.6978.4398 1.7432 1.8287 1.4658l.0919.3735c-.7056.1469-1.3726.2979-2.0947.4758-.6182.1505-1.0697.2728-1.7982.476l-.0913-.3731c1.3809-.4123 1.3678-.4698 1.0335-1.8832l-.7239-2.9602-.001-.0038c-.4157-1.6477-.439-1.74-1.7819-1.3758l-.0851-.349z"/><path d="M50.551 52.4133c-.011 2.2929-.1013 5.288-.3234 6.8163h-.1106c-.2227-1.5311-.3126-4.5244-.3221-6.8163 0-.0865-.0665-.3227-.2621-.4586-.554-.3258-1.0638-.6535-1.5109-.9724-1.1236-.7988-2.1822-1.6458-3.1594-2.4423-.8582-.6995-1.2591-1.4052-1.3616-1.6048l.0006-.0006-.0134-.0151.004-.0587.0782-.0325.0255.0462c.0426.0416 1.3473 1.1063 2.8432 2.2095.741.5472 1.3093.9087 1.9676 1.328.2791.1771.5728.3639.9003.5782.1754.1148.3258.1375.4024.0579.0404-.0432.0609-.115.0569-.2021-.0028-.7482-.0088-1.6162-.0149-2.4409-.0066-.981-.0126-1.9011-.0126-2.4819-.0077-.4611-.0053-.9784-.0025-1.4787.0019-.5786.0047-1.1258-.0104-1.4159.0098-.2955-.0539-.5307-.3968-.7309-.3096-.181-.6634-.4397-.8534-.579-.0438-.0319-.0778-.0571-.0985-.0712-1.1577-.823-2.1516-1.5867-3.0388-2.3347-.3106-.2621-1.6166-1.4261-1.8442-1.9176l-.0881-.19.1715.1204c.7505.5303 1.3992 1.0249 2.026 1.5039.7542.5754 1.4659 1.119 2.2879 1.673.2824.1908.5152.3311.7611.4796.1978.1184.4019.2413.6381.3947.1501.0973.2884.1148.3628.0388.0533-.0543.0794-.1546.0772-.2899-.0044-.4445.0044-.7776.0159-1.1992.0082-.2937.0175-.63.0243-1.0767.0167-1.1537.031-3.9005.0161-4.4162-.0096-.3198-.2838-.5062-.4471-.618-.0328-.0223-.0615-.0422-.0828-.0591-1.1288-.8907-2.0867-1.9895-2.9274-3.3589-.382-.6224-.6224-1.5301-.6017-1.5783l.0141-.034h.0374c.0072 0 .0165.0006.0543.0478h.0012s.0006.0012.0006.0021c.0744.0942.2575.364.7396 1.1384.9321 1.4966 1.6631 2.2029 2.7675 3.054.1906.1474.2974.1781.3534.1781.0314 0 .1273 0 .1273-.2547.0042-1.4655.0398-6.3535.2877-7.7454h.1107c.27 1.5099.2982 7.1112.3002 7.7454 0 .0885.012.1554.0356.1994.0209.0382.049.0553.0916.0553.0557 0 .1621-.0307.353-.1781 1.1041-.8511 1.8354-1.5568 2.768-3.054.4845-.7778.6662-1.0464.7402-1.1393v-.0006c.039-.0484.0478-.0484.0555-.0484h.0323l.0163.0279c.0352.0614-.2456 1.008-.599 1.5844-.8405 1.3694-1.7984 2.4682-2.9274 3.3589-.0215.0169-.0493.0362-.0817.0579-.1638.1118-.4384.2988-.4488.6192-.0149.5157-.0006 3.2625.0164 4.4162.0073.4427.0161.7776.0242 1.0701.0114.4238.0207.7585.0166 1.2052-.0024.1365.0238.2362.077.2905.0746.0757.2121.0585.3623-.0388.2362-.153.4396-.2752.6363-.3937.2478-.1485.4812-.2894.7643-.4806.8192-.5524 1.529-1.0944 2.2812-1.6686.6283-.4802 1.2782-.9766 2.0319-1.5083l.1708-.1204-.0876.19c-.2583.559-1.8276 1.9045-1.8433 1.9176-.8869.747-1.8808 1.5105-3.0401 2.3341-.0185.0137-.0487.0354-.0871.0636-.1781.1304-.5484.4024-.8636.5872-.3446.2012-.4083.4358-.398.7257-.0147.2931-.0117.8341-.0093 1.4074.0024.5046.0046 1.0271-.003 1.4934 0 .5621-.0062 1.4458-.0127 2.3941-.006.8506-.0126 1.7532-.0154 2.5251-.0039.0903.017.1619.0581.2047.0751.0796.2259.0569.401-.0579.3301-.2161.6254-.4035.9056-.582.6564-.4177 1.2235-.7782 1.9623-1.3242 1.5005-1.1064 2.8021-2.1685 2.8518-2.2205l.0165-.0171.074-.0028.012.0725-.0179.0215c-.0999.1972-.5011.9029-1.3593 1.6024-.9766.7961-2.0347 1.643-3.1588 2.4423-.4535.3229-.9633.6506-1.5156.9746-.1929.1347-.2571.3659-.2571.4564zm24.8106-.0656c-.1958-.0325-.4605.0006-.7048.0366-.1678.0251-.3409.0503-.4999.0503-.3034 0-.508-.0953-.6433-.3014-.242-.3682-.2133-.8049.0838-1.2994.2-.3315.4708-.6017.7326-.863.1503-.149.3047-.3036.4402-.4642.0921-.1096.2103-.2443.3462-.3995 1.0019-1.1428 3.086-3.5204 2.7332-4.9384-.1126-.4536-.5518-.9121-1.1752-.9121-.031 0-.0634.001-.0951.0032-.2491.0181-.4998.1082-.7219.1878-.16.0575-.2987.1075-.4093.1202-.7913.0892-1.2892-.1608-1.4237-.7147-.2145-.8851.3932-1.9005.982-2.8827.7004-1.1694 1.4243-2.3784.7408-3.3423-.1511-.2125-.3353-.3114-.5793-.3114-.1834 0-.3814.0554-.5726.1091-.1889.0533-.3847.1084-.5649.1084-.1656 0-.3013-.0459-.4161-.1397-.3222-.2626-.5802-.9087-.8795-1.6571-.3426-.8568-.7305-1.8272-1.3234-2.5445-.0066-.0072-.7914-.8736-1.46-.8736-.4964 0-.8078.4857-.9256 1.443-.0251.205-.0492.4627-.0744.7357-.1304 1.3994-.309 3.3172-1.0544 3.3172-.0516 0-.1053-.0096-.1596-.0283-.4236-.144-.7655-.0841-.9303.1674-.2145.3275-.142.943.2032 1.7327.0553.1272 1.3581 3.1248.8204 3.948-.1415.2161-.3914.269-.7382.1528-.0788-.0265-.1743-.041-.2684-.041-.1507 0-.4304.0388-.6063.2975-.1885.2784-.3037.8884.2232 2.2135.8158 2.0534.7002 3.3785.3534 3.8893-.1281.189-.2949.2889-.4815.2889-.0886 0-.1626.0328-.2279.0997-.3615.3739-.3199 1.6907-.2889 2.6522l.003.1158c.034 1.0838-.2201 3.0557-.8479 3.1248-.5205.0571-.5667 1.0681-.6074 1.96-.0183.3906-.0347.7597-.0902 1.0365-.03.1542-.0097.2642.0243.3054.0084.0099.0384.0306.0917-.0703 3.3608-6.352 5.2525-14.1881 5.4696-22.6617l.0579-1.2347.0918.1003c.032.0356.3128.4302.2099 3.2607-.0094.2579-.0116.4433-.0149.6634-.005.3844-.0116.8624-.0575 1.9878-.0038.1003.0131.1737.0503.2129.0637.0669.2296.0173.308-.033.2296-.1465.7577-.6137 1.3169-1.1087.5036-.4459 1.0247-.9074 1.4159-1.2144l.1662-.1304-.0794.1961c-.3049.7491-2.0951 2.3105-2.769 2.8985-.0934.0812-.1602.1397-.1931.1693-.1567.1459-.343.4714-.3699.7239-.2395 2.2796-.4819 4.0127-1.011 6.1301-.0314.1263-.0237.2248.0235.2853.046.0593.1216.0712.1777.0712.0728 0 .1568-.0219.235-.0609.7957-.4017 1.5421-.8415 2.2007-1.2303.279-.1645.545-.3211.7951-.4642.2884-.1649.8779-.554 1.2041-.7716.0314-.0209.04-.0237.0571-.0237l.0772.0062-.0303.0718c-.2314.553-1.0163 1.0685-2.2057 1.8483l-.1359.0896c-.7032.4624-2.0835 1.2734-2.2387 1.3644-.1801.1046-.5146.2998-.6477.73-.7476 2.398-1.4374 4.2535-2.2375 6.0152-.0691.1529-.0834.2693-.04.3353.0471.0742.1643.0894.2545.0894.1403 0 .2776-.0368.2787-.0374 1.8374-.4893 3.3123-1.1792 4.8743-1.9093.1926-.0903.3872-.1814.5838-.2728l.1942-.0899-.125.1735c-.6226.8672-2.9731 1.9872-4.4434 2.5062-.3078.1092-1.6931.5661-1.954.6485-.2818.0881-.506.3068-.6666.6492-.3693.7882-1.9152 3.4756-2.7668 4.6102-.0806.1073-.1047.196-.0713.2641.0496.1014.2281.1643.4768.1693.2571.0147.502.0219.7514.0219.7788 0 1.4686-.0722 2.2672-.1556.4733-.0502.9628-.1013 1.5399-.1457l.2137-.0165-.1781.1188c-.737.4939-3.7435.7398-3.8712.7502-.2479.0183-.5985.0326-.9153.0374-1.1577.0191-1.3658.2598-1.5501.4718-2.0121 2.3067-4.1237 3.9716-6.2752 4.948l-.1358.0621c-.7541.3431-1.6085.7321-2.2174.7321-.1437 0-.2708-.0213-.3781-.0647-.2087-.0993-.3309-.3046-.3661-.6119-.1409-1.2295 1.2013-3.9376 2.968-5.3456.1146-.0921.359-.125.5486-.125.1212 0 .2342.0128.319.0357.1255.034.3273.1583.5404.2893.1781.1096.3622.2226.473.2626.4409.1534.8371.2316 1.1764.2316.467 0 .8241-.1522 1.0056-.4284.2153-.3281.2312-.4525.2603-.6779-1.3109-.1793-4.0258-2.5008-4.408-4.4017l-.0056.0006c-.2675.0273-.479.0486-.8801.3441-.6001.4389-.5777 1.2619.0662 2.4468l.0675.1214c.2083.3735.4242.7605.1427 1.0033-.8069.6749-1.4064 1.4687-1.9355 2.1689-.2778.3689-.5407.7169-.7882.9806l-.0991.1044.0018-.1434c.011-1.1913.1839-3.7403.4189-4.8669.5595-2.6767 2.7986-4.9668 4.7073-6.2186.1564-.1025.315-.2043.4751-.3068 1.1519-.7392 2.3428-1.5043 2.9949-2.7034.2143-.3906.3512-.9841.0915-1.4768-.1719-.3283-.692-.3635-1.1509-.3946-.3806-.0253-.6811-.0457-.7605-.2258-.0509-.1156.0038-.2684.1737-.4824.1948-.2449.3898-.4877.5842-.7298.9651-1.2019 1.8764-2.3369 2.6869-3.6406.0832-.1343.1729-.2702.263-.4083.3299-.5012.671-1.0204.8322-1.6277.0975-.3673.0511-.6843-.1467-.9969-.1918-.3028-.4427-.4502-.7661-.4502-.4851 0-1.0788.3291-1.6527.6472-.5792.321-1.1782.6531-1.6796.6531-.2636 0-.4885-.0931-.667-.2766-.9404-.9625.5321-2.4723 2.2372-4.2206 1.5556-1.595 3.3196-3.4032 3.5146-5.1009.0993-.8669-.194-1.8316-1.0731-2.031-.1932-.0437-.3855-.0662-.5709-.0662-.9161 0-1.6127.5426-2.2264 1.0209-.5299.4127-1.0299.8023-1.5968.8023-.2702 0-.5349-.0865-.8089-.2642-1.3352-.8664-.2658-2.9893.1369-3.7884.0406-.08.0744-.1481.0997-.2016l.1003-.2105c.5054-1.0604 1.0275-2.1572.9042-3.8017-.0597-.8089-.5584-1.7003-1.2604-1.73-.0159-.0004-.0314-.0004-.0466-.0004-.4598 0-.6986.287-.9754.6197-.3464.4168-.7388.8886-1.6601.8886-.0246 0-.0503 0-.076-.001-1.2042-.0344-1.5596-1.2779-1.6935-1.7459-.0157-.0553-.0283-.0996-.0388-.1283-.3836-1.0602-1.1668-2.2523-2.2157-2.417-.0037 0-.0987-.0058-.1512-.0058-.0559 0-.1564.0064-.1564.0064-1.0442.1641-1.8268 1.3562-2.2099 2.4164-.0107.0293-.023.0734-.039.1293-.1343.4682-.4905 1.7105-1.6933 1.7449-.0259.001-.0515.001-.0766.001-.9203 0-1.3131-.4724-1.6601-.8886-.2768-.3327-.5156-.6197-.9756-.6197-.0151 0-.0305 0-.0464.0004-.7008.0297-1.2.9211-1.2599 1.73-.1234 1.6463.3995 2.7435.9053 3.8043l.0991.2079c.0253.0535.0599.1226.1005.2032.4022.7991 1.4701 2.921.1363 3.7868-.2746.1777-.5386.2642-.809.2642-.5675 0-1.0676-.3896-1.5967-.8023-.6138-.4783-1.3099-1.0209-2.226-1.0209-.1864 0-.3782.0225-.5712.0662-.939.2131-1.1651 1.227-1.0727 2.031.195 1.6977 1.9583 3.5059 3.5148 5.1009 1.7042 1.7483 3.1767 3.2581 2.2363 4.2212-.1815.1855-.3993.276-.6666.276-.5022 0-1.1007-.3321-1.6804-.6531-.5734-.3181-1.1672-.6472-1.6525-.6472-.3236 0-.5743.1474-.7665.4502-.1974.3126-.2433.6296-.1464.9969.1611.6079.5026 1.1275.8335 1.6293.0901.1375.1789.273.262.4067.8129 1.3069 1.7264 2.4441 2.6937 3.6487.1922.2394.3852.4796.5774.7217.1699.214.2255.3668.1737.4824-.0788.1801-.3802.2005-.7603.2258-.4594.0311-.9802.0663-1.1519.3946-.2589.4927-.1218 1.0862.0917 1.4768.6523 1.1985 1.8424 1.9636 2.9943 2.7028.1596.1027.319.2049.4758.3074 1.9076 1.2506 4.1467 3.5403 4.7081 6.2186.235 1.1292.4077 3.6772.4186 4.8669l.0016.1434-.0987-.1044c-.2475-.2637-.5102-.6117-.7885-.9798-.5293-.7006-1.1289-1.4948-1.9351-2.1691-.2822-.2428-.0669-.6288.1414-1.0019.0231-.0412.0462-.0822.0687-.1234.6437-1.1849.6664-2.0079.0662-2.4468-.4023-.2955-.6132-.3174-.8806-.3441l-.0058-.0006c-.3817 1.9009-3.0966 4.2224-4.408 4.4017.0292.2254.0449.3498.2614.6779.1809.2762.5375.4284 1.0051.4284.3398 0 .7354-.0782 1.1763-.2324.1105-.0392.2941-.1518.471-.2606.2143-.1322.4163-.2565.5425-.2905.0845-.0229.1979-.0357.3183-.0357.1903 0 .4342.0329.5486.125 1.7674 1.4084 3.1095 4.1167 2.9686 5.346-.035.3069-.1568.5122-.3623.6099-.1107.045-.2376.0663-.3813.0663-.6089 0-1.4633-.3884-2.2172-.7315l-.1369-.0627c-2.1516-.9764-4.2628-2.6407-6.2743-4.948-.1847-.212-.3946-.4527-1.5503-.4718-.3167-.0048-.6675-.0191-.9153-.0374-.1277-.0104-3.1349-.2563-3.8719-.7502l-.1783-.1188.2139.0165c.577.0444 1.0665.0955 1.5397.1457.7993.0834 1.4886.1556 2.2682.1556.2497 0 .4942-.0072.7491-.0219.2515-.005.429-.0679.479-.1693.0328-.0675.0087-.1562-.0718-.2641-.8541-1.1384-2.3996-3.8242-2.7667-4.6102-.161-.343-.3852-.5617-.6664-.6492-.2648-.0832-1.6505-.5409-1.9544-.6485-1.4704-.519-3.8216-1.6396-4.4436-2.5062l-.1244-.1735.1934.0899c.1988.092.3958.1841.5914.2754 1.5596.7297 3.0327 1.418 4.8673 1.9067.001.0006.1387.0374.279.0374.0899 0 .2065-.0152.2543-.0888.0427-.0666.0292-.183-.0404-.3359-.7974-1.756-1.488-3.6109-2.237-6.0152-.1333-.4306-.4682-.6254-.6485-.7294-.2559-.1507-1.5663-.9233-2.2381-1.365l-.1315-.0868c-1.1911-.7808-1.9783-1.297-2.2107-1.8511l-.0328-.078h.0853c.0165 0 .0177.0006.0864.0461.5701.3799.9638.632 1.1698.7492.2455.1403.5064.2943.7798.4555.663.3912 1.4144.8339 2.2157 1.239.0782.0394.1615.0609.2349.0609.0554 0 .1312-.0125.1777-.0718.0466-.0599.0554-.1584.0235-.2847-.5271-2.109-.7694-3.8448-1.0106-6.1301-.0273-.2525-.2137-.578-.3715-.7239-.0328-.0304-.1029-.0915-.1994-.1759-.6723-.5869-2.4578-2.1462-2.761-2.8919l-.0788-.1957.1655.13c.3922.3082.9151.7712 1.4211 1.2187.5562.4935 1.0823.9585 1.3107 1.1044.0794.0503.2452.0993.309.033.0367-.0392.0544-.1126.0498-.2129-.0452-1.1254-.0514-1.604-.0567-1.9878-.0034-.2201-.0056-.4055-.0155-.6634-.1029-2.8305.1782-3.2251.2105-3.2607l.0911-.1003.0579 1.2337c.2183 8.4746 2.11 16.3107 5.4702 22.6627.0549.1031.0828.0792.0909.0703.0341-.0412.0544-.1512.0243-.3054-.0549-.2768-.0718-.6449-.0897-1.0351-.0408-.8927-.088-1.9043-.6079-1.9614-.6264-.0691-.8813-2.0404-.8479-3.1248l.0032-.1118c.0309-.9627.0736-2.282-.2887-2.6556-.0651-.0675-.1397-.1003-.2272-.1003-.1877 0-.3542-.0999-.4826-.2889-.3468-.5102-.4622-1.8353.3538-3.8893.5265-1.3251.4121-1.9351.2229-2.2135-.1753-.2587-.4549-.2975-.6057-.2975-.0945 0-.1901.0145-.2689.041-.3474.1166-.5967.0627-.7376-.1528-.537-.8226.7649-3.8208.8208-3.948.3453-.7897.4177-1.4052.2028-1.7327-.1644-.2509-.5072-.3114-.931-.1674-.0542.0187-.1079.0283-.1594.0283-.746 0-.9241-1.9196-1.0542-3.32-.0255-.2718-.049-.5285-.0737-.7335-.1184-.9567-.4296-1.4424-.926-1.4424-.67 0-1.4546.8664-1.4623.8752-.5906.7151-.9786 1.6857-1.3207 2.5419-.2998.7484-.5577 1.3951-.8811 1.6581-.1142.0938-.2505.1397-.4154.1397-.1811 0-.3761-.0551-.5657-.1084-.1907-.0537-.389-.1091-.5719-.1091-.244 0-.4274.0989-.5788.3114-.6845.9639.0406 2.1729.7408 3.3423.5886.9822 1.1968 1.9976.9833 2.8827-.1361.5539-.6303.8045-1.4259.7147-.1098-.0127-.2483-.0621-.4089-.1202-.2214-.0796-.4724-.1697-.7213-.1878-.6761-.0444-1.1519.433-1.2713.9089-.353 1.4174 1.7316 3.7952 2.7336 4.938.1359.155.2541.2903.3475.3999.1345.1612.2903.3162.4403.466.2621.2607.5321.5303.7322.8612.2969.4951.3246.9322.0834 1.2994-.1781.2702-.4527.3014-.6433.3014-.1592 0-.3323-.0252-.5-.0503-.2442-.036-.508-.0695-.7046-.0366-.5721.0941-1.1366.767-1.0488 1.6895.1231 1.2944 2.2616 3.3148 3.7408 4.3364.0336.0231.1104.0703.2147.1343.4702.2893 1.4488.8919 1.6965 1.2578.1481.2163.194.425.1369.6192-.1347.4543-.8005.7358-1.3359.9617-.2388.1009-.4448.188-.5578.2706-.2429.1771-.786.6863-.582 1.5791.3253 1.4261 3.0983 3.0524 4.9749 3.6782 1.0695.3578 3.0452 1.2183 3.0649 1.2271.404.2115.3343.6477.2605 1.1091-.0899.5608-.192 1.1963.3964 1.716.0173.0142.0242.0361.0298.0536.001.0045.0022.0065.0022.0075.395.239.9575.3258 1.5023.4095.1942.0301.3952.0617.5822.0987 1.0186.2012 2.2089.2559 3.3598.3086 1.9602.09 3.9866.1823 5.3262.9934 2.8683 1.7373 1.6851 5.5402 1.633 5.7012-.0428.1337.0207.3074.0678.3293.0767.0362.1553.0762.237.1184.3638.187.7765.3989 1.3507.4101.0024.0006.2718.0006.2724 0 .5759-.0112.9886-.2231 1.3523-.4107.082-.0416.1596-.0816.2352-.1178.048-.0219.1114-.1956.0686-.3293-.0515-.1604-1.2418-3.9594 1.6331-5.7012 1.3399-.8111 3.3665-.9034 5.3263-.9934 1.1507-.0527 2.3404-.1074 3.36-.3086.1874-.037.388-.0686.5814-.0981.5446-.0843 1.108-.1711 1.5027-.4101.0088-.0272.0154-.0469.0321-.0611.5876-.5197.4863-1.1552.3963-1.7166-.0734-.4614-.143-.897.2571-1.1069.0235-.0104 1.9988-.8709 3.0693-1.2287 1.8762-.6258 4.6478-2.2521 4.9739-3.6782.2038-.8934-.3386-1.402-.5814-1.5791-.113-.0826-.3195-.1697-.5579-.2706-.5353-.2259-1.2019-.5074-1.3362-.9623-.0575-.1942-.0119-.4023.1355-.6192.2499-.3665 1.2319-.9706 1.7037-1.2606.1017-.0622.1765-.1084.2099-.1309 1.4793-1.022 3.6175-3.0426 3.7403-4.3364.0871-.9225-.4768-1.5954-1.0488-1.6895"/><path d="M59.4689 57.5121c-1.6876 0-3.9239 1.8105-4.2582 2.2234.3984 1.2806 2.4073 3.2651 3.7484 3.7.2231-.1609 1.9504-2.0604 2.1928-3.7392.1028-.7167-.0742-1.3045-.5263-1.7487-.2943-.2887-.6833-.4355-1.1567-.4355zM40.8763 57.5121c-.4735 0-.863.1468-1.1574.4355-.4519.4442-.629 1.032-.5254 1.7487.2416 1.6782 1.9696 3.5783 2.1924 3.7392 1.3406-.4349 3.3495-2.42 3.749-3.7-.3349-.4129-2.573-2.2234-4.2586-2.2234"/></g><defs><clipPath id="clip0_36_387"><path fill="currentColor" d="M0 0h100v100H0z"/></clipPath></defs></svg>
