<svg width="17" height="17" viewBox="0 0 17 17" fill="none" xmlns="http://www.w3.org/2000/svg"><path d="M.9375 6.89062c0 .85938.16146 1.66667.48438 2.42188.32291.75.77083 1.4115 1.34374 1.9844C3.33854 11.8698 4 12.3177 4.75 12.6406c.75521.3229 1.5625.4844 2.42188.4844.67708 0 1.32291-.1042 1.9375-.3125.61458-.2083 1.17712-.4948 1.68752-.8594l3.8437 3.8516c.0938.0885.1953.1536.3047.1953.1146.0469.2344.0703.3594.0703.1771 0 .3333-.0417.4687-.125.1355-.0781.2396-.1875.3125-.3281.0782-.1406.1172-.2969.1172-.4688 0-.125-.0234-.2422-.0703-.3515-.0417-.1094-.1042-.2058-.1875-.2891l-3.8203-3.8437c.401-.5209.7135-1.1016.9375-1.74222.2292-.64063.3437-1.31771.3437-2.03126 0-.85937-.1614-1.66406-.4843-2.41406-.3229-.75521-.7709-1.41927-1.3438-1.99218-.5729-.57292-1.237-1.02084-1.99216-1.34376-.75-.322912-1.55469-.48437-2.41406-.48437-.85938 0-1.66667.161458-2.42188.48437-.75.32292-1.41146.77084-1.98438 1.34376-.57291.57291-1.02083 1.23697-1.34374 1.99218-.32292.75-.48438 1.55469-.48438 2.41406zm1.33594 0c0-.67708.125-1.30989.375-1.89843.25521-.59375.60677-1.11459 1.05468-1.5625.45313-.45313.97396-.80469 1.5625-1.05469.59376-.25521 1.22917-.38281 1.90626-.38281.67708 0 1.30989.1276 1.89843.38281.59375.25 1.11459.60156 1.56249 1.05469.4479.44791.7995.96875 1.0547 1.5625.2552.58854.3828 1.22135.3828 1.89843 0 .67709-.1276 1.3125-.3828 1.90626-.2552.58854-.6068 1.10677-1.0547 1.55472-.4479.4479-.96874.7994-1.56249 1.0546-.58854.2553-1.22135.3829-1.89843.3829-.67709 0-1.3125-.1276-1.90626-.3829-.58854-.2552-1.10937-.6067-1.5625-1.0546-.44791-.44795-.79947-.96618-1.05468-1.55472-.25-.59376-.375-1.22917-.375-1.90626z" fill="currentColor"/></svg>
