<svg width="87" height="18" viewBox="0 0 87 18" fill="none" xmlns="http://www.w3.org/2000/svg"><g clip-path="url(#clip)" fill="currentColor"><path d="M11.3956 14.1455c-1.161.3403-2.35231.7652-3.79857.7652-1.44555 0-2.63627-.4249-3.79768-.7652V.481594H0V16.0447C2.07029 17.2638 4.7064 18 7.59703 18c2.86347 0 5.52847-.7362 7.59817-1.9553V.481594h-3.7996V14.1455zM29.1766 3.82752v2.52292h3.7991V1.92729C30.9064.708567 28.2696.00018 25.3792.00018c-2.8635 0-5.4996.708387-7.5682 1.92711V16.0725c2.0686 1.1908 4.7047 1.8992 7.5682 1.8992 2.8904 0 5.5272-.7084 7.5965-1.8992V10.914h-3.7991v3.231c-1.134.3403-2.3508.5375-3.7974.5375-1.4455 0-2.6363-.1972-3.7708-.5375V3.82752c1.1345-.34181 2.3253-.54015 3.7708-.54015 1.4466 0 2.6634.19834 3.7974.54015M47.0625 14.145c-1.1623.3403-2.352.5375-3.7988.5375-1.4451 0-2.6349-.1972-3.7978-.5375V3.82752c1.1629-.36963 2.3527-.54015 3.7978-.54015 1.4468 0 2.6365.19834 3.7988.54015V14.145zM35.6658 1.90034V16.0725c2.0713 1.1908 4.707 1.8992 7.5979 1.8992 2.8634 0 5.5281-.7084 7.597-1.8992V1.90034C48.7918.708567 46.1553.00018 43.2637.00018c-2.8626 0-5.5266.708387-7.5979 1.90016zM65.0203 12.5286h-.0859L57.3937.481457h-4.0529V17.4619h3.4304V5.41406h.1126l7.5395 12.04784h4.0544V.481457h-3.4574V12.5286zM82.6185 12.5286h-.0853L74.9937.481457h-4.0546V17.4619H74.37V5.41406h.1119l7.5399 12.04784h4.0547V.481457h-3.458V12.5286z"/></g><defs><clipPath id="clip"><path fill="#fff" d="M0 0h86.0772v18H0z"/></clipPath></defs></svg>
